<?xml version="1.0" encoding="UTF-8"?>
<svg id="Layer_1" data-name="Layer 1" xmlns="http://www.w3.org/2000/svg" viewBox="0 0 49.85 47.18">
  <defs>
    <style>
      .cls-1 {
        fill: #6d6e71;
      }

      .cls-1, .cls-2, .cls-3, .cls-4 {
        stroke-width: 0px;
      }

      .cls-2 {
        fill: #58595b;
      }

      .cls-3 {
        fill: #414042;
      }

      .cls-4 {
        fill: #231f20;
      }
    </style>
  </defs>
  <path class="cls-4" d="M39.58,26.23c-2.7,4.12-6.08,7.71-9.04,11.64-.45.59-1.11.72-1.77.55-4.69-1.18-9.5-1.87-14.09-3.48,3.21-4.1,6.42-8.19,9.62-12.29,5.09,1.19,10.18,2.39,15.28,3.58Z"/>
  <path class="cls-2" d="M24.31,22.65c-3.21,4.1-6.42,8.19-9.62,12.29-2.02-2.52-2.63-5.84-4.49-8.38-3.03-4.14-2.11-7.41,1.29-10.72,1.81-1.77,3.23-3.93,4.83-5.92.4-.49.62-1.2,1.43-1.19.52,1.04.99,2.1,1.56,3.1.95,1.65,1.13,3.18-.42,4.61-.58.54-1.13,1.13-1.61,1.76-.93,1.21-.22,2.27.6,3.08.97.96,1.25-.43,1.83-.77,1.1-.65,1.14-2.45,2.76-2.53.61,1.55,1.23,3.11,1.84,4.66Z"/>
  <path class="cls-3" d="M22.47,17.99c-1.62.08-1.67,1.89-2.76,2.53-.58.34-.86,1.73-1.83.77-.82-.81-1.53-1.86-.6-3.08.48-.63,1.03-1.22,1.61-1.76,1.55-1.43,1.36-2.95.42-4.61-.58-1-1.05-2.07-1.56-3.1,2.36-.25,4.47.84,6.7,1.26,1.35.26,2.66.83,4,.92,3.94.25,5.81,2.65,6.81,6.1-1.09.08-2.14-.11-3.21-.34-3.68-.78-7.34-1.72-11.59-1.94.85,1.28,1.48,2.22,2.1,3.16l-.09.09Z"/>
  <path class="cls-3" d="M24.31,22.65c-.61-1.56-1.22-3.11-1.84-4.66,0,0,.09-.09.09-.09.94.02,1.86.08,2.8.25,3.76.69,7.54,1.26,11.32,1.88,1.2,1.96,2.47,3.89,2.9,6.2-5.09-1.19-10.18-2.39-15.28-3.58Z"/>
  <path class="cls-1" d="M36.68,20.03c-3.77-.62-7.56-1.18-11.32-1.88-.94-.17-1.86-.23-2.8-.25-.62-.94-1.25-1.88-2.1-3.16,4.25.22,7.91,1.16,11.59,1.94,1.07.23,2.12.42,3.21.34.72.89,1.13,1.92,1.43,3.01Z"/>
  <g>
    <path class="cls-3" d="M43.4,11.71c-2.79-.43-5.15-.8-7.52-1.14-.85-.12-1.29-.43-.6-1.22.92-1.06.15-1.47-.63-2-6.54-4.43-15.66-4.43-22.05.04C5.79,12.14,2.62,20.28,4.55,28.06c1.97,7.96,8.5,13.88,16.48,14.89,6.68.85,12.44-1.11,16.96-6.09,1.4-1.54,2.08-.68,3.15.09,1.53,1.1.63,1.95-.2,2.79-12.07,12.23-31.12,8.73-38.45-5.95C-2.36,24.09.01,12.95,8.34,5.62c7.72-6.78,19.23-7.5,28.05-1.77.94.61,1.86,1.89,3.08.23.48-.66.85-.06,1.06.45.92,2.29,1.83,4.58,2.86,7.19Z"/>
    <path class="cls-3" d="M49.85,38.22c-1.55-1.72-3.89-2.48-5.58-4.09-1.21-1.15-2.07-2.29-1.85-4.55,2.6,3.14,5.63,5.3,7.43,8.64Z"/>
    <path class="cls-3" d="M48.3,30.35c-2.28-2.47-6.28-3.35-6.31-7.92,2.32,2.44,4.63,4.89,6.95,7.33-.21.19-.42.39-.64.58Z"/>
    <path class="cls-3" d="M39.57,14.17c2.45,2.17,4.51,4.47,6.55,6.78.24.27.64.73.06,1.08-.42.26-.61-.2-.86-.41-1.28-1.06-2.53-2.15-3.83-3.17-1.33-1.04-2.05-2.33-1.92-4.29Z"/>
  </g>
</svg>