<?xml version="1.0" encoding="utf-8"?>
<!-- Generator: Adobe Illustrator 28.2.0, SVG Export Plug-In . SVG Version: 6.00 Build 0)  -->
<svg version="1.1" id="Layer_1" xmlns="http://www.w3.org/2000/svg" xmlns:xlink="http://www.w3.org/1999/xlink" x="0px" y="0px"
	 viewBox="0 0 1034.4 469.4" style="enable-background:new 0 0 1034.4 469.4;" xml:space="preserve">
<style type="text/css">
	.st0{display:none;}
	.st1{display:inline;}
	.st2{fill:#4D5791;}
	.st3{fill:#5C65AE;}
	.st4{fill:#D1D3D4;}
	.st5{fill:#5D65AD;}
	.st6{fill:#5CC8DD;}
	.st7{fill:#5E66AE;}
	.st8{fill:#4F5892;}
	.st9{fill:#4E5892;}
	.st10{fill:#5F66AE;}
	.st11{fill:#6067AE;}
	.st12{fill:#6168AF;}
</style>
<g class="st0">
	<g class="st1">
		<path class="st2" d="M298.4,226.8c-14.4-24.2-28.5-48.6-42.3-73.1c-3.2-5.7-7.1-7.5-13.3-7.4c-25.1,0.3-50.1,0.1-75.1,0.2
			c-2.6,0-5.3,0.5-9.4,1c2.7,5,4.8,8.9,7,12.7c12.8,22.3,25.5,44.7,38.7,66.8c1.7,2.8,2.4,5.2,2.4,7.6h94.5
			C300.8,232,300.1,229.6,298.4,226.8L298.4,226.8z"/>
		<path class="st3" d="M206.3,234.4c0,2.4-0.9,4.8-2.5,7.5c-16,27.3-31.7,54.7-47.5,82.1c-13.4,23.4-26.8,46.9-41.5,72.6
			c30.4,0,58.2-0.3,86,0.2c7.1,0.1,10.5-2.6,13.7-8.3c27.7-48.6,55.6-97.1,83.6-145.5c1.8-3.1,2.7-5.8,2.6-8.6L206.3,234.4
			L206.3,234.4z"/>
		<path class="st3" d="M183.5,228c-28.1-49.6-56.8-98.8-85-148.4c-3.1-5.4-6.6-7.1-12.4-7c-19.1,0.2-38.3,0.1-57.4,0.1
			c-8.9,0-17.7,0-28.7,0c2.9,5.4,4.5,8.7,6.3,11.9c27.2,47.3,54.4,94.6,81.9,141.8c1.7,2.9,2.6,5.5,2.7,8.1h94
			C184.9,232,184.5,229.6,183.5,228L183.5,228z"/>
		<path class="st2" d="M90.9,234.4c0.1,2.9-0.8,5.7-2.8,8.9c-6.7,10.5-12.6,21.6-18.9,32.4c-8.6,15-17.1,30-27,47.4
			c31.5,0,60.4,0.2,89.2-0.3c2.9,0,6.8-3.2,8.4-6c14.8-25.2,29.5-50.4,43.5-76c0.9-1.7,1.4-4.1,1.5-6.4H90.9z"/>
	</g>
	<g class="st1">
		<path class="st3" d="M502.5,290.9h-40.4l-39-80.8l-14.4,80.8h-40.4L394,146.2h40.2l39.2,81.9l14.4-81.9H528L502.5,290.9z"/>
		<path class="st3" d="M772.2,146.2l-5.7,32h-38.4l-19.9,112.6h-40.4l19.9-112.6h-38.1l5.7-32C655.3,146.2,772.2,146.2,772.2,146.2z
			"/>
		<polygon class="st3" points="608.9,178 637.8,178 643.4,146.2 550.9,146.2 545.3,178 585.6,178 		"/>
		<polygon class="st3" points="575.9,232.6 622.1,232.6 627.6,202 606.8,202 581.5,202 541,202 525.3,290.9 618,290.9 623.5,258.9 
			571.2,258.9 		"/>
		<polygon class="st4" points="984.4,237.1 984.4,237 979.6,241.8 982.9,238.6 		"/>
		<g>
			<polygon class="st2" points="874.2,178 879.7,146.2 787.2,146.2 771.9,232.6 812.2,232.6 834.3,232.6 858.4,232.6 863.9,202 
				817.8,202 821.9,178 			"/>
			<polygon class="st2" points="761.5,290.9 854.3,290.9 859.8,258.9 831.9,258.9 807.5,258.9 767.2,258.9 			"/>
			<polygon class="st2" points="1034.4,146.2 988.6,146.2 971,169.4 975.3,177.6 988.6,202.9 			"/>
			<polygon class="st2" points="984.4,237 984.4,237 984.4,237.1 982.9,238.6 979.6,241.8 979.6,241.8 979.6,241.8 952.8,268 
				964.4,290.9 1011.8,290.9 			"/>
		</g>
		<polygon class="st3" points="958.3,186.1 938,146.2 890.6,146.2 926.7,216.8 866.6,290.9 910.3,290.9 943.7,250.1 975.3,219.3 		
			"/>
	</g>
	<g class="st1">
		<path class="st3" d="M890.8,351.2c-1-0.9-1.6-2.1-1.6-3.6c0-1.3,0.3-2.5,1-3.6s1.7-2,2.9-2.6c1.3-0.7,2.6-1,4.1-1
			c1.8,0,3.2,0.5,4.3,1.4c1,0.9,1.6,2.2,1.6,3.6c0,2-0.8,3.7-2.3,5c-1.5,1.4-3.4,2.1-5.7,2.1C893.3,352.6,891.9,352.1,890.8,351.2
			L890.8,351.2z"/>
		<path class="st3" d="M965.7,321.1c2,1.9,3,4.6,3,7.9c0,1.3-0.1,2.5-0.3,3.5l-3.5,19.6h-11.7l3.2-18c0.1-0.6,0.1-1.1,0.1-1.3
			c0-1.4-0.4-2.5-1.2-3.2c-0.8-0.8-1.9-1.1-3.4-1.1c-1.6,0-3,0.4-4.1,1.3s-1.9,2.1-2.3,3.6l-3.3,18.8h-11.7l3.2-18
			c0.1-0.3,0.1-0.8,0.1-1.4c0-1.4-0.4-2.4-1.2-3.1s-1.9-1.1-3.4-1.1c-1.7,0-3.1,0.5-4.2,1.4c-1.1,0.9-1.9,2.3-2.3,4l-3.2,18.3h-11.8
			l6-33.6h11.7l-0.8,4.4c1.3-1.4,2.7-2.6,4.6-3.4c1.8-0.8,3.8-1.3,6-1.3c2.5,0,4.6,0.6,6.3,1.6c1.7,1.1,3,2.6,3.7,4.6
			c1.5-1.8,3.3-3.3,5.5-4.5c2.2-1.1,4.4-1.7,6.8-1.7C960.8,318.2,963.7,319.2,965.7,321.1L965.7,321.1z"/>
		<path class="st3" d="M975.9,326.2c1.7-2.6,3.8-4.6,6.2-6s4.9-2.1,7.6-2.1c2.3,0,4.2,0.5,5.7,1.4s2.6,2.2,3.2,3.7l0.8-4.7h11.7
			l-5.9,33.6h-11.7l0.8-4.7c-1.1,1.6-2.7,2.8-4.6,3.7c-1.9,0.9-3.9,1.4-6.2,1.4c-3.5,0-6.3-1.2-8.4-3.5c-2.1-2.3-3.2-5.5-3.2-9.5
			c0-1.3,0.1-2.7,0.3-4.2C973,331.9,974.1,328.8,975.9,326.2L975.9,326.2z M996.7,333.6c0-1.7-0.5-3-1.4-3.9s-2.2-1.4-3.6-1.4
			c-1.7,0-3.3,0.6-4.7,1.8c-1.4,1.2-2.3,2.9-2.6,5.1c-0.1,0.6-0.2,1.2-0.2,1.7c0,1.7,0.5,3,1.4,3.9s2.2,1.4,3.6,1.4
			c1.7,0,3.3-0.6,4.7-1.8c1.4-1.3,2.3-3,2.6-5.2C996.6,334.7,996.7,334.2,996.7,333.6L996.7,333.6z"/>
	</g>
</g>
<g>
	<path class="st5" d="M90.9,234.6c-0.8-4-2.6-7.5-4.6-11C58.6,175.7,30.9,127.7,3.3,79.7C2,77.5,0.5,75.3,0,72.6
		c17.3,0,34.5,0,51.8,0c6.1,1.4,12.3,1.4,18.4,0c6.7,0,13.4,0,20,0c4.3,1.6,7,4.6,9.2,8.5c27.5,48.1,55,96,82.6,144.1
		c1.7,2.9,3.3,5.8,2.6,9.4C153.3,234.6,122.1,234.6,90.9,234.6z"/>
	<path class="st5" d="M203.9,396.8c-5.6,0-11.2,0-16.8,0c-24,0-48,0-72.5,0c1-2,1.7-3.3,2.5-4.6c28.6-49.7,57.2-99.4,85.8-149
		c1.5-2.7,2.8-5.4,3.4-8.5c31.5,0,62.9,0,94.4-0.1c0.5,3.4-1.2,6.2-2.7,9c-27.7,48.2-55.4,96.3-83,144.4
		C212.3,392.4,209.2,396,203.9,396.8z"/>
	<path class="st5" d="M422.9,210.7c-4.7,26.2-9.2,51.4-13.5,76.6c-0.5,2.9-1.5,3.9-4.5,3.9c-11-0.2-22-0.1-33,0
		c-2.9,0-3.9-0.6-3.4-3.7c8.1-45.5,16.2-91.1,24.2-136.6c0.6-3.5,1.8-4.7,5.5-4.6c10.8,0.3,21.7,0.2,32.6,0c2.4,0,3.6,0.8,4.7,3
		c11.5,24.2,23.1,48.4,34.7,72.5c0.8,1.6,1.6,3.2,2.9,5.9c2-11.1,3.8-21.1,5.5-31.1c2.8-15.7,5.6-31.5,8.2-47.2
		c0.4-2.2,1.1-3.1,3.4-3c11.6,0.1,23.1,0.1,34.7,0c2.7,0,2.8,0.9,2.4,3.2c-5.3,29.7-10.4,59.4-15.7,89c-2.9,16.4-5.9,32.8-8.6,49.2
		c-0.4,2.6-1.3,3.5-4,3.4c-11.4-0.1-22.8-0.2-34.2,0c-2.9,0-3.8-1.6-4.8-3.6c-11.6-24-23.2-48-34.8-72.1
		C424.7,214.2,424.1,213,422.9,210.7z"/>
	<path class="st6" d="M817.7,201.9c32.4,0,64.8,0,97.3,0.2c4.3,0,2.8-1.9,1.8-4c-8.4-16.3-16.8-32.6-25.2-48.9
		c-0.4-0.7-0.6-1.5-0.9-2.2c1-1.2,2.2-0.7,3.2-0.7c13.5,0,27,0,40.5-0.1c2.6,0,4,0.7,5.2,3.1c11.3,22.3,22.6,44.6,34.1,66.9
		c1.3,2.6,1.1,4.1-1,6c-8.3,7.8-16.6,15.7-24.6,23.8c-12.1,12.3-22.3,26.3-33.2,39.6c-3.3,4-6.4,6.1-11.8,5.8
		c-10.6-0.5-21.1-0.1-31.7-0.2c-1.3,0-3.1,0.7-3.9-0.7c-0.8-1.5,1-2.4,1.8-3.4c14.4-17.8,28.9-35.6,43.5-53.6
		c-1.5-1.1-3-0.7-4.4-0.7c-30.5,0-60.9,0-91.4,0c-1.7,0-3.3-0.1-5-0.2c0.3-1.6,0.6-3.2,0.9-4.9C814.4,219.2,816,210.6,817.7,201.9z"
		/>
	<path class="st7" d="M713.2,146.2c18.2,0,36.5,0.1,54.7-0.1c3.4,0,4.3,0.9,3.6,4.2c-1.7,8-3.3,16.1-4.4,24.2c-0.5,3.6-2,4.1-5.2,4
		c-10-0.2-20,0-30.1-0.1c-2.7,0-4,0.4-4.6,3.6c-6,34.8-12.2,69.5-18.2,104.3c-0.6,3.7-1.9,4.9-5.9,4.8c-10.7-0.3-21.4-0.2-32.2-0.1
		c-2.6,0-3.6-0.4-3-3.5c5.6-31,11-62.1,16.5-93.1c0.7-4.2,1.3-8.5,2.3-12.7c0.7-2.7-0.1-3.3-2.7-3.3c-10.4,0.1-20.9,0-31.3,0.1
		c-2.7,0-3.6-0.4-3-3.4c1.7-8.6,3.2-17.2,4.6-25.9c0.4-2.7,1.8-3.2,4.2-3.1C676.7,146.3,695,146.2,713.2,146.2z"/>
	<path class="st8" d="M300.6,234.6c-31.5,0-62.9,0-94.4,0.1c-0.5-4.1-2.6-7.5-4.6-11c-13.9-24.1-27.7-48.2-41.7-72.2
		c-1.8-3.1-1.8-4.4,2.3-4.6c3.9-0.2,7.8-0.5,11.7-0.5c23,0,45.9,0.1,68.9,0c6.1,0,10.4,2.4,13.3,7.6c13.6,24.4,27.6,48.6,41.9,72.6
		C299.5,228.9,300.9,231.5,300.6,234.6z"/>
	<path class="st9" d="M90.9,234.6c31.2,0,62.5,0,93.7,0c0.4,3.1-0.8,5.7-2.3,8.3c-13.6,24.5-27.6,48.8-41.9,73
		c-2.9,5-6.9,7.4-12.9,7.4c-27-0.1-53.9,0-80.9,0.1c-4.8,0-4.8,0-2.3-4.3c14.7-25.5,28.7-51.4,44-76.5
		C89.8,240,90.2,237.3,90.9,234.6z"/>
	<path class="st5" d="M571.6,290.9c-14.1,0-28.1-0.1-42.2,0.1c-3.5,0-4.6-0.7-3.9-4.4c4.8-26.4,9.5-52.7,14-79.2
		c0.7-4.2,2-5.5,6.5-5.5c25.7,0.3,51.5,0.2,77.2,0.1c3.7,0,4.3,0.8,3.5,4.4c-1.7,7.6-3,15.3-4.2,22.9c-0.4,2.8-1.4,3.6-4.2,3.6
		c-12.9-0.2-25.9,0-38.8-0.1c-3,0-4.1,0.8-4.5,3.7c-0.9,6.3-2.1,12.6-3.4,18.9c-0.6,2.8-0.1,3.6,2.9,3.6c14.5-0.1,28.9-0.1,43.4-0.1
		c5.4,0,5.4,0,4.5,5.2c-1.3,7.8-2.8,15.6-3.9,23.4c-0.4,2.8-1.6,3.5-4.3,3.5C600,290.8,585.8,290.9,571.6,290.9z"/>
	<path class="st7" d="M817.7,201.9c-1.7,8.6-3.3,17.2-5,25.9c-0.3,1.6-0.6,3.2-0.9,4.9c-12.4,0.1-24.8,0.1-37.2,0.2
		c-2.4,0-3.2-0.7-2.7-3.1c4.8-26.7,9.5-53.3,14.2-80c0.5-2.6,1.4-3.6,4.3-3.6c28.5,0.1,57.1,0.1,85.6,0c2.6,0,3.7,0.3,3,3.4
		c-1.7,8.4-3.2,16.9-4.4,25.5c-0.4,2.8-1.6,3.3-4.1,3.3c-14.9-0.1-29.8,0.1-44.7-0.1c-3.4,0-4.5,1.1-5,4.4
		C820.1,189.1,818.8,195.5,817.7,201.9z"/>
	<path class="st7" d="M591.4,178.3c-14.2,0-28.4-0.1-42.5,0.1c-3,0-3.9-0.8-3.4-3.8c1.6-8.4,3.2-16.9,4.5-25.4c0.4-2.4,1.4-3,3.8-3
		c28.6,0.1,57.3,0.1,85.9,0c2.7,0,3.7,0.5,3.1,3.5c-1.7,8.4-3.3,16.9-4.5,25.4c-0.4,2.8-1.5,3.3-4,3.3
		C620,178.3,605.7,178.3,591.4,178.3z"/>
	<path class="st5" d="M813.2,258.8c14.3,0,28.7,0.1,43-0.1c2.8,0,3.5,0.7,3,3.5c-1.7,8.6-3.2,17.2-4.6,25.8
		c-0.3,2.1-1.1,2.8-3.2,2.8c-29.1,0-58.2,0-87.2,0c-2.3,0-2.9-0.9-2.5-3c1.6-8.9,3.3-17.7,4.7-26.7c0.4-2.8,2-2.4,3.8-2.4
		C784.6,258.8,798.9,258.8,813.2,258.8z"/>
	<path class="st7" d="M987.6,291.1c-6.7,0-13.3-0.1-20,0c-2.3,0-3.9-0.6-4.9-2.8c-2.8-5.9-5.8-11.7-8.8-17.5
		c-0.9-1.8-1.2-3.1,0.5-4.8c9.4-9.1,18.7-18.2,28-27.4c1.7-1.7,2.3-1.2,3.2,0.6c8.3,16.5,16.7,32.9,25.2,49.3
		c1.1,2.2,0.3,2.5-1.7,2.5C1001.7,291,994.6,291.1,987.6,291.1z"/>
	<path class="st10" d="M1034.4,146.2c-15.6,19.3-30.6,37.8-45.8,56.6c-1.7-1.6-2.3-3.5-3.3-5.3c-4.5-8.5-8.8-17-13.4-25.4
		c-1.1-2.1-1-3.3,0.5-5.1c4.8-6.1,9.5-12.3,14.2-18.6c1.2-1.6,2.5-2.3,4.5-2.2C1005.1,146.3,1019.2,146.2,1034.4,146.2z"/>
	<path class="st11" d="M945,323.9c3.6-3.6,7.5-5.9,12.4-5.8c7.3,0.1,12,4.8,11.1,12c-0.7,6.6-2.2,13.1-3.3,19.7
		c-0.3,1.9-1.3,2.3-3.1,2.4c-9.5,0.4-9.5,0.5-7.7-9c0.5-2.7,0.8-5.5,1.4-8.2c0.6-2.9,0.6-5.5-2.8-6.2c-3.4-0.7-6.3,0.4-7.3,3.9
		c-1.2,4.4-1.8,9-2.7,13.5c-0.4,2,0,5.1-1.8,5.6c-3.1,0.8-6.6,0.5-9.9,0.2c-1.8-0.2-0.9-2.1-0.7-3.2c0.7-4.3,1.6-8.5,2.2-12.7
		c0.4-2.9,1.5-6.4-3-7.4c-3.8-0.8-6.8,1.5-7.6,5.9c-0.9,4.9-1.8,9.8-2.6,14.8c-0.3,2-1.1,2.8-3.2,2.9c-9.4,0.4-9.4,0.5-7.8-8.7
		c1.2-7,2.5-14,3.6-21c0.5-3,1.5-4.9,5-4.2c1.5,0.3,3.1,0,4.6,0c0.6,0,1.5-0.2,1.6,0.1c2.4,4.7,5.1,0.6,7.4,0.1
		C936.6,317.5,941.4,318.4,945,323.9z"/>
	<path class="st10" d="M997.8,321.6c1.5-2.6,9.8-4.4,12.2-2.9c1.1,0.7,0.7,1.7,0.6,2.6c-1.6,9.6-3.3,19.1-5,28.7
		c-0.2,1-0.4,2.1-1.6,2.2c-3.2,0.1-6.4,0.1-9.6,0c-1.9,0-0.6-1.8-1.5-2.8c-3.2,2.2-6.9,3.5-11,3.1c-3.2-0.3-6-1.5-7.7-4.3
		c-4.3-6.8-2.9-13.7,0.4-20.2c3.2-6.2,8.2-10,15.6-9.9C993.2,318.2,995.8,319.2,997.8,321.6z M988.3,342.2c4.5,0.1,8.1-3.9,8-8.4
		c0-3.1-1.6-5-4.7-5.3c-4-0.3-7.6,3.7-7.7,8.2C983.9,340,985.6,341.9,988.3,342.2z"/>
	<path class="st12" d="M894.8,352.7c-3.6,0-6.1-2.2-6-5.5c0.1-3.7,3.7-6.9,8-7c3.8-0.1,6.1,1.9,6.1,5.3
		C903,349.6,899.4,352.8,894.8,352.7z"/>
</g>
</svg>
